<svg xmlns="http://www.w3.org/2000/svg" viewBox="0 0 64 64"><defs><linearGradient id="g" x1="0" y1="0" x2="1" y2="1"><stop offset="0" stop-color="#ff2bd6"/><stop offset=".55" stop-color="#ff5500"/><stop offset="1" stop-color="#ffb000"/></linearGradient><linearGradient id="c" x1="0" y1="0" x2="1" y2="1"><stop offset="0" stop-color="#00e5ff"/><stop offset="1" stop-color="#7a5cff"/></linearGradient></defs><rect width="64" height="64" rx="16" fill="#0d0d14"/><path d="M17 11h17c9 0 13.500 4.500 13.500 11 0 4.500-2.300 7.600-6.500 8.800 5.500 1 8.800 4.800 8.800 10.200 0 7.700-5.600 12-15.300 12H17z M27 20v9h6c3.300 0 5-1.600 5-4.500S36.300 20 33 20z M27 37v10h7c3.400 0 5.300-1.800 5.300-5s-1.900-5-5.300-5z" fill="url(#g)" fill-rule="evenodd"/><circle cx="53" cy="53" r="5" fill="#00e5ff"/></svg>