<svg xmlns="http://www.w3.org/2000/svg" viewBox="0 0 64 64"><defs><linearGradient id="g" x1="0" y1="0" x2="1" y2="1"><stop offset="0" stop-color="#ff2bd6"/><stop offset=".55" stop-color="#ff5500"/><stop offset="1" stop-color="#ffb000"/></linearGradient><linearGradient id="c" x1="0" y1="0" x2="1" y2="1"><stop offset="0" stop-color="#00e5ff"/><stop offset="1" stop-color="#7a5cff"/></linearGradient></defs><circle cx="32" cy="32" r="30" fill="#0d0d14"/><circle cx="32" cy="32" r="27" fill="none" stroke="url(#g)" stroke-width="5"/><path d="M23 16h11c6 0 9 3 9 7.500 0 3-1.500 5-4.500 6 4 .8 6 3.500 6 7 0 5.500-4 8.500-10.500 8.500H23z M30 22v6h3.500c2.300 0 3.500-1 3.500-3s-1.200-3-3.500-3z M30 34v7h4.500c2.300 0 3.700-1.200 3.700-3.500s-1.400-3.500-3.700-3.500z" fill="#fff" fill-rule="evenodd"/></svg>